<svg id="Capa_1" enable-background="new 0 0 512.002 512.002" height="512" viewBox="0 0 512.002 512.002" width="512" xmlns="http://www.w3.org/2000/svg"><g><path d="m508.455 141.304c-2.871-3.369-7.061-5.303-11.455-5.303h-375.846l-29.681-108.94c-1.787-6.533-7.705-11.06-14.473-11.06h-62c-8.291 0-15 6.709-15 15s6.709 15 15 15h50.545c113.816 416.991 74.561 273.17 83.053 304.283-15.742 7.071-26.598 22.505-26.598 40.717 0 20.744 14.178 38.077 33.303 43.264-2.089 5.184-3.303 10.812-3.303 16.736 0 24.814 20.186 45 45 45s45-20.186 45-45c0-5.284-1.082-10.285-2.763-15h125.526c-1.681 4.715-2.763 9.716-2.763 15 0 24.814 20.186 45 45 45s45-20.186 45-45-20.186-45-45-45h-240c-8.262 0-15-6.724-15-15 0-13.973 18.007-16.918 15-15.293 3 0 13.142-1.254 301.465-29.78 6.768-.674 12.217-5.771 13.33-12.466l30-180c.732-4.351-.498-8.789-3.34-12.158zm-296.455 309.697c0 8.276-6.738 15-15 15s-15-6.724-15-15 6.738-15 15-15 15 6.724 15 15zm195 15c-8.262 0-15-6.724-15-15s6.738-15 15-15 15 6.724 15 15-6.738 15-15 15zm-165-195c0 8.291-6.709 15-15 15s-15-6.709-15-15v-60c0-8.291 6.709-15 15-15s15 6.709 15 15zm90 0c0 8.291-6.709 15-15 15s-15-6.709-15-15v-60c0-8.291 6.709-15 15-15s15 6.709 15 15zm90 0c0 8.291-6.709 15-15 15s-15-6.709-15-15v-60c0-8.291 6.709-15 15-15s15 6.709 15 15z"/><path d="m452 61.001c0-8.291-6.709-15-15-15h-23.789l4.395-4.395c5.859-5.859 5.859-15.352 0-21.211s-15.352-5.859-21.211 0l-19.395 19.395-19.395-19.395c-5.859-5.859-15.352-5.859-21.211 0s-5.859 15.352 0 21.211l4.395 4.395h-23.789c-8.291 0-15 6.709-15 15v45h150z"/><path d="m272 76.001h-105c-8.291 0-15 6.709-15 15v15h120z"/></g></svg>